<svg xmlns="http://www.w3.org/2000/svg" viewBox="0 20.649999618530273 88.1500015258789 37.849998474121094" data-asc="1.16" width="88.1500015258789" height="37.849998474121094"><defs/><g fill="#7d2583"><g transform="translate(0, 0)"><path d="M20.60 37.30L41.95 37.30L41.95 58.00L33.15 58.00L32.10 49.15Q30.60 53.90 26.75 56.20Q22.90 58.50 17.35 58.50Q12.30 58.50 8.38 56.25Q4.45 54.00 2.23 49.80Q0 45.60 0 40.00Q0 31.05 5.35 25.85Q10.70 20.65 22 20.65Q28.45 20.65 33.38 22.75Q38.30 24.85 41.75 29.25Q39.50 30.40 32.95 33.85L31.70 34.55Q29.75 32.60 27.15 31.62Q24.55 30.65 21.65 30.65Q16.85 30.65 14.50 33.17Q12.15 35.70 12.15 39.40Q12.15 43.40 14.68 45.85Q17.20 48.30 22.40 48.30Q24.65 48.30 26.78 47.65Q28.90 47.00 30.35 45.40L20.60 45.40L20.60 37.30ZM45.95 53.70Q47.65 51.15 48.78 48.95Q49.90 46.75 50.95 43.85Q54.50 45.90 59.20 47.05Q63.90 48.20 67.95 48.20Q72.10 48.20 73.80 47.47Q75.50 46.75 75.50 45.90Q75.50 42.85 66.20 42.85Q56 42.85 51.40 40.72Q46.80 38.60 46.80 33.85Q46.80 27.10 52.40 23.90Q58 20.70 66.95 20.70Q72.15 20.70 77.63 22.02Q83.10 23.35 87.50 25.65Q86.05 28.95 84.45 33.70Q84.15 34.70 83.95 35.20Q81.40 33.15 76.25 31.77Q71.10 30.40 67.15 30.40Q62.40 30.40 60.75 31.02Q59.10 31.65 59.10 32.85Q59.10 34.05 61.38 34.77Q63.65 35.50 67.95 35.50Q78.55 35.50 83.35 37.92Q88.15 40.35 88.15 45.35Q88.15 52.35 83.05 55.42Q77.95 58.50 67.60 58.50Q62.05 58.50 56.30 57.27Q50.55 56.05 45.95 53.70Z"/></g></g></svg>