<svg xmlns="http://www.w3.org/2000/svg" viewBox="0 20.649999618530273 88.1500015258789 37.849998474121094" data-asc="1.16" width="88.1500015258789" height="37.849998474121094"><defs/><g fill="#7d2583"><g transform="translate(0, 0)"><path d="M0 53.70Q1.70 51.15 2.83 48.95Q3.95 46.75 5 43.85Q8.55 45.90 13.25 47.05Q17.95 48.20 22 48.20Q26.15 48.20 27.85 47.47Q29.55 46.75 29.55 45.90Q29.55 42.85 20.25 42.85Q10.05 42.85 5.45 40.72Q0.85 38.60 0.85 33.85Q0.85 27.10 6.45 23.90Q12.05 20.70 21 20.70Q26.20 20.70 31.68 22.02Q37.15 23.35 41.55 25.65Q40.10 28.95 38.50 33.70Q38.20 34.70 38 35.20Q35.45 33.15 30.30 31.77Q25.15 30.40 21.20 30.40Q16.45 30.40 14.80 31.02Q13.15 31.65 13.15 32.85Q13.15 34.05 15.43 34.77Q17.70 35.50 22 35.50Q32.60 35.50 37.40 37.92Q42.20 40.35 42.20 45.35Q42.20 52.35 37.10 55.42Q32 58.50 21.65 58.50Q16.10 58.50 10.35 57.27Q4.60 56.05 0 53.70ZM66.80 37.30L88.15 37.30L88.15 58.00L79.35 58.00L78.30 49.15Q76.80 53.90 72.95 56.20Q69.10 58.50 63.55 58.50Q58.50 58.50 54.58 56.25Q50.65 54.00 48.43 49.80Q46.20 45.60 46.20 40.00Q46.20 31.05 51.55 25.85Q56.90 20.65 68.20 20.65Q74.65 20.65 79.58 22.75Q84.50 24.85 87.95 29.25Q85.70 30.40 79.15 33.85L77.90 34.55Q75.95 32.60 73.35 31.62Q70.75 30.65 67.85 30.65Q63.05 30.65 60.70 33.17Q58.35 35.70 58.35 39.40Q58.35 43.40 60.88 45.85Q63.40 48.30 68.60 48.30Q70.85 48.30 72.98 47.65Q75.10 47.00 76.55 45.40L66.80 45.40L66.80 37.30Z"/></g></g></svg>